# xmcd
#
# Track frame offsets: 
#        150
#        15944
#        34340
#        52500
#        70680
#        90370
#        108946
#        125146
#        144484
#        165174
#        184369
#        202601
#        220640
#        239352
#        255812
#        270079
#
# Disc length: 3902 seconds
#
# Revision: 1
# Processed by: cddbd v1.5.2PL0 Copyright (c) Steve Scherf et al.
# Submitted via: ExactAudioCopy v0.99pb4
#
DISCID=ba0f3c10
DTITLE=Mary J. Blige - Growing Pains
DYEAR=2007
DGENRE=R&B
TTITLE0=Work That
TTITLE1=Grown Woman (feat. Ludacris)
TTITLE2=Just Fine
TTITLE3=Feel Like a Woman
TTITLE4=Stay Down
TTITLE5=Hurt Again
TTITLE6=Shake Down (feat. Usher)
TTITLE7=Till the Morning
TTITLE8=Roses
TTITLE9=Fade Away
TTITLE10=What Love Is
TTITLE11=Work in Progress (Growing Pains)
TTITLE12=Talk to Me
TTITLE13=If You Love Me?
TTITLE14=Smoke
TTITLE15=Come to Me (Peace)
EXTD=
EXTT0=
EXTT1=
EXTT2=
EXTT3=
EXTT4=
EXTT5=
EXTT6=
EXTT7=
EXTT8=
EXTT9=
EXTT10=
EXTT11=
EXTT12=
EXTT13=
EXTT14=
EXTT15=
PLAYORDER=
